<svg xmlns="http://www.w3.org/2000/svg" width="528mm" height="400mm" viewBox="0 0 528 400">
  <g transform="translate(212.0, 281.3395)">
    <g transform="rotate(90, 10.0, 8.6605)">
      <ns0:path xmlns:ns0="http://www.w3.org/2000/svg" d="M 20.0,0.0 L 10.0,17.321 L 0.0,0.0 Z" fill="none" stroke="#000000" stroke-width="0.500mm" style="fill:none"/>
    </g>
  </g>
  <g transform="translate(8.0, 17.3395)">
    <g transform="rotate(270, 10.0, 8.6605)">
      <ns0:path xmlns:ns0="http://www.w3.org/2000/svg" d="M 20.0,0.0 L 10.0,17.321 L 0.0,0.0 Z" fill="none" stroke="#000000" stroke-width="0.500mm" style="fill:none"/>
    </g>
  </g>
  <g transform="translate(20.0, 77.3395)">
    <g transform="rotate(90, 10.0, 8.6605)">
      <ns0:path xmlns:ns0="http://www.w3.org/2000/svg" d="M 20.0,0.0 L 10.0,17.321 L 0.0,0.0 Z" fill="none" stroke="#000000" stroke-width="0.500mm" style="fill:none"/>
    </g>
  </g>
  <g transform="translate(320.0, 309.3395)">
    <g transform="rotate(150, 10.0, 8.6605)">
      <ns0:path xmlns:ns0="http://www.w3.org/2000/svg" d="M 20.0,0.0 L 10.0,17.321 L 0.0,0.0 Z" fill="none" stroke="#000000" stroke-width="0.500mm" style="fill:none"/>
    </g>
  </g>
  <g transform="translate(256.0, 337.3395)">
    <g transform="rotate(240, 10.0, 8.6605)">
      <ns0:path xmlns:ns0="http://www.w3.org/2000/svg" d="M 20.0,0.0 L 10.0,17.321 L 0.0,0.0 Z" fill="none" stroke="#000000" stroke-width="0.500mm" style="fill:none"/>
    </g>
  </g>
  <g transform="translate(148.0, 257.3395)">
    <g transform="rotate(270, 10.0, 8.6605)">
      <ns0:path xmlns:ns0="http://www.w3.org/2000/svg" d="M 20.0,0.0 L 10.0,17.321 L 0.0,0.0 Z" fill="none" stroke="#000000" stroke-width="0.500mm" style="fill:none"/>
    </g>
  </g>
  <g transform="translate(328.0, 221.3395)">
    <g transform="rotate(270, 10.0, 8.6605)">
      <ns0:path xmlns:ns0="http://www.w3.org/2000/svg" d="M 20.0,0.0 L 10.0,17.321 L 0.0,0.0 Z" fill="none" stroke="#000000" stroke-width="0.500mm" style="fill:none"/>
    </g>
  </g>
  <g transform="translate(112.0, 149.3395)">
    <g transform="rotate(90, 10.0, 8.6605)">
      <ns0:path xmlns:ns0="http://www.w3.org/2000/svg" d="M 20.0,0.0 L 10.0,17.321 L 0.0,0.0 Z" fill="none" stroke="#000000" stroke-width="0.500mm" style="fill:none"/>
    </g>
  </g>
  <g transform="translate(232.0, 201.3395)">
    <g transform="rotate(90, 10.0, 8.6605)">
      <ns0:path xmlns:ns0="http://www.w3.org/2000/svg" d="M 20.0,0.0 L 10.0,17.321 L 0.0,0.0 Z" fill="none" stroke="#000000" stroke-width="0.500mm" style="fill:none"/>
    </g>
  </g>
  <g transform="translate(252.0, 141.3395)">
    <g transform="rotate(30, 10.0, 8.6605)">
      <ns0:path xmlns:ns0="http://www.w3.org/2000/svg" d="M 20.0,0.0 L 10.0,17.321 L 0.0,0.0 Z" fill="none" stroke="#000000" stroke-width="0.500mm" style="fill:none"/>
    </g>
  </g>
  <g transform="translate(76.0, 305.3395)">
    <g transform="rotate(90, 10.0, 8.6605)">
      <ns0:path xmlns:ns0="http://www.w3.org/2000/svg" d="M 20.0,0.0 L 10.0,17.321 L 0.0,0.0 Z" fill="none" stroke="#000000" stroke-width="0.500mm" style="fill:none"/>
    </g>
  </g>
  <g transform="translate(84.0, 241.3395)">
    <g transform="rotate(30, 10.0, 8.6605)">
      <ns0:path xmlns:ns0="http://www.w3.org/2000/svg" d="M 20.0,0.0 L 10.0,17.321 L 0.0,0.0 Z" fill="none" stroke="#000000" stroke-width="0.500mm" style="fill:none"/>
    </g>
  </g>
  <g transform="translate(100.0, 85.3395)">
    <g transform="rotate(120, 10.0, 8.6605)">
      <ns0:path xmlns:ns0="http://www.w3.org/2000/svg" d="M 20.0,0.0 L 10.0,17.321 L 0.0,0.0 Z" fill="none" stroke="#000000" stroke-width="0.500mm" style="fill:none"/>
    </g>
  </g>
  <g transform="translate(56.0, 177.3395)">
    <g transform="rotate(30, 10.0, 8.6605)">
      <ns0:path xmlns:ns0="http://www.w3.org/2000/svg" d="M 20.0,0.0 L 10.0,17.321 L 0.0,0.0 Z" fill="none" stroke="#000000" stroke-width="0.500mm" style="fill:none"/>
    </g>
  </g>
  <g transform="translate(204.0, 73.3395)">
    <g transform="rotate(150, 10.0, 8.6605)">
      <ns0:path xmlns:ns0="http://www.w3.org/2000/svg" d="M 20.0,0.0 L 10.0,17.321 L 0.0,0.0 Z" fill="none" stroke="#000000" stroke-width="0.500mm" style="fill:none"/>
    </g>
  </g>
  <g transform="translate(252.0, 77.3395)">
    <g transform="rotate(330, 10.0, 8.6605)">
      <ns0:path xmlns:ns0="http://www.w3.org/2000/svg" d="M 20.0,0.0 L 10.0,17.321 L 0.0,0.0 Z" fill="none" stroke="#000000" stroke-width="0.500mm" style="fill:none"/>
    </g>
  </g>
  <g transform="translate(144.0, 333.3395)">
    <g transform="rotate(120, 10.0, 8.6605)">
      <ns0:path xmlns:ns0="http://www.w3.org/2000/svg" d="M 20.0,0.0 L 10.0,17.321 L 0.0,0.0 Z" fill="none" stroke="#000000" stroke-width="0.500mm" style="fill:none"/>
    </g>
  </g>
  <g transform="translate(4.0, 149.3395)">
    <g transform="rotate(180, 10.0, 8.6605)">
      <ns0:path xmlns:ns0="http://www.w3.org/2000/svg" d="M 20.0,0.0 L 10.0,17.321 L 0.0,0.0 Z" fill="none" stroke="#000000" stroke-width="0.500mm" style="fill:none"/>
    </g>
  </g>
  <g transform="translate(304.0, 165.3395)">
    <g transform="rotate(210, 10.0, 8.6605)">
      <ns0:path xmlns:ns0="http://www.w3.org/2000/svg" d="M 20.0,0.0 L 10.0,17.321 L 0.0,0.0 Z" fill="none" stroke="#000000" stroke-width="0.500mm" style="fill:none"/>
    </g>
  </g>
  <g transform="translate(0.0, 281.3395)">
    <g transform="rotate(300, 10.0, 8.6605)">
      <ns0:path xmlns:ns0="http://www.w3.org/2000/svg" d="M 20.0,0.0 L 10.0,17.321 L 0.0,0.0 Z" fill="none" stroke="#000000" stroke-width="0.500mm" style="fill:none"/>
    </g>
  </g>
  <g transform="translate(228.0, 9.3395)">
    <g transform="rotate(150, 10.0, 8.6605)">
      <ns0:path xmlns:ns0="http://www.w3.org/2000/svg" d="M 20.0,0.0 L 10.0,17.321 L 0.0,0.0 Z" fill="none" stroke="#000000" stroke-width="0.500mm" style="fill:none"/>
    </g>
  </g>
  <g transform="translate(144.0, 41.3395)">
    <g transform="rotate(210, 10.0, 8.6605)">
      <ns0:path xmlns:ns0="http://www.w3.org/2000/svg" d="M 20.0,0.0 L 10.0,17.321 L 0.0,0.0 Z" fill="none" stroke="#000000" stroke-width="0.500mm" style="fill:none"/>
    </g>
  </g>
  <g transform="translate(324.0, 5.339499999999999)">
    <g transform="rotate(120, 10.0, 8.6605)">
      <ns0:path xmlns:ns0="http://www.w3.org/2000/svg" d="M 20.0,0.0 L 10.0,17.321 L 0.0,0.0 Z" fill="none" stroke="#000000" stroke-width="0.500mm" style="fill:none"/>
    </g>
  </g>
  <g transform="translate(184.0, 133.3395)">
    <g transform="rotate(60, 10.0, 8.6605)">
      <ns0:path xmlns:ns0="http://www.w3.org/2000/svg" d="M 20.0,0.0 L 10.0,17.321 L 0.0,0.0 Z" fill="none" stroke="#000000" stroke-width="0.500mm" style="fill:none"/>
    </g>
  </g>
  <g transform="translate(240.0, 261.3395)">
    <g transform="rotate(150, 10.0, 8.6605)">
      <ns0:path xmlns:ns0="http://www.w3.org/2000/svg" d="M 20.0,0.0 L 10.0,17.321 L 0.0,0.0 Z" fill="none" stroke="#000000" stroke-width="0.500mm" style="fill:none"/>
    </g>
  </g>
  <g transform="translate(0.0, 213.3395)">
    <g transform="rotate(90, 10.0, 8.6605)">
      <ns0:path xmlns:ns0="http://www.w3.org/2000/svg" d="M 20.0,0.0 L 10.0,17.321 L 0.0,0.0 Z" fill="none" stroke="#000000" stroke-width="0.500mm" style="fill:none"/>
    </g>
  </g>
  <g transform="translate(84.0, 1.3394999999999992)">
    <g transform="rotate(270, 10.0, 8.6605)">
      <ns0:path xmlns:ns0="http://www.w3.org/2000/svg" d="M 20.0,0.0 L 10.0,17.321 L 0.0,0.0 Z" fill="none" stroke="#000000" stroke-width="0.500mm" style="fill:none"/>
    </g>
  </g>
  <g transform="translate(320.0, 81.3395)">
    <g transform="rotate(210, 10.0, 8.6605)">
      <ns0:path xmlns:ns0="http://www.w3.org/2000/svg" d="M 20.0,0.0 L 10.0,17.321 L 0.0,0.0 Z" fill="none" stroke="#000000" stroke-width="0.500mm" style="fill:none"/>
    </g>
  </g>
  <g transform="translate(140.0, 197.3395)">
    <g transform="rotate(240, 10.0, 8.6605)">
      <ns0:path xmlns:ns0="http://www.w3.org/2000/svg" d="M 20.0,0.0 L 10.0,17.321 L 0.0,0.0 Z" fill="none" stroke="#000000" stroke-width="0.500mm" style="fill:none"/>
    </g>
  </g>
  <g transform="translate(296.0, 249.3395)">
    <g transform="rotate(30, 10.0, 8.6605)">
      <ns0:path xmlns:ns0="http://www.w3.org/2000/svg" d="M 20.0,0.0 L 10.0,17.321 L 0.0,0.0 Z" fill="none" stroke="#000000" stroke-width="0.500mm" style="fill:none"/>
    </g>
  </g>
</svg>
